HIERARCHY
ROOT SpineBase
{
  OFFSET 0.000000 0.000000 0.000000
  CHANNELS 6 Xposition Yposition Zposition Zrotation Xrotation Yrotation
  JOINT SpineMid
  {
    OFFSET 0.000000 26.114716 0.000000
    CHANNELS 3 Zrotation Xrotation Yrotation
    JOINT SpineShoulder
    {
      OFFSET 0.077572 19.433372 -0.535963
      CHANNELS 3 Zrotation Xrotation Yrotation
      JOINT Neck
      {
        OFFSET 0.070154 6.415926 -0.441600
        CHANNELS 3 Zrotation Xrotation Yrotation
        JOINT Head
        {
          OFFSET -3.726550 13.001284 -1.529027
          CHANNELS 3 Zrotation Xrotation Yrotation
          End Site
          {
            OFFSET 0 0 0
          }
        }
      }
      JOINT ShoulderLeft
      {
        OFFSET -14.466834 -4.448410 5.606726
        CHANNELS 3 Zrotation Xrotation Yrotation
        JOINT ElbowLeft
        {
          OFFSET -1.923805 -23.646322 -0.975163
          CHANNELS 3 Zrotation Xrotation Yrotation
          JOINT WristLeft
          {
            OFFSET 0.101822 -21.125415 -4.053834
            CHANNELS 3 Zrotation Xrotation Yrotation
            JOINT HandLeft
            {
              OFFSET 1.578318 -7.130095 -1.472599
              CHANNELS 3 Zrotation Xrotation Yrotation
              JOINT HandTipLeft
              {
                OFFSET 0.935564 -5.441923 -0.557462
                CHANNELS 3 Zrotation Xrotation Yrotation
                End Site
                {
                  OFFSET 0 0 0
                }
              }
              JOINT ThumbLeft
              {
                OFFSET 3.833163 1.869028 -2.695778
                CHANNELS 3 Zrotation Xrotation Yrotation
                End Site
                {
                  OFFSET 0 0 0
                }
              }
            }
          }
        }
      }
      JOINT ShoulderRight
      {
        OFFSET 13.775281 -3.554415 -7.437431
        CHANNELS 3 Zrotation Xrotation Yrotation
        JOINT ElbowRight
        {
          OFFSET 6.860079 -22.463361 -0.191756
          CHANNELS 3 Zrotation Xrotation Yrotation
          JOINT WristRight
          {
            OFFSET -1.674863 -19.360266 -3.346611
            CHANNELS 3 Zrotation Xrotation Yrotation
            JOINT HandRight
            {
              OFFSET -2.448549 -5.442115 -1.053156
              CHANNELS 3 Zrotation Xrotation Yrotation
              JOINT HandTipRight
              {
                OFFSET -0.156214 -6.268860 -2.389887
                CHANNELS 3 Zrotation Xrotation Yrotation
                End Site
                {
                  OFFSET 0 0 0
                }
              }
              JOINT ThumbRight
              {
                OFFSET 2.017245 -1.119921 -1.481137
                CHANNELS 3 Zrotation Xrotation Yrotation
                End Site
                {
                  OFFSET 0 0 0
                }
              }
            }
          }
        }
      }
    }
  }
  JOINT HipLeft
  {
    OFFSET -5.887447 0.482623 -0.374870
    CHANNELS 3 Zrotation Xrotation Yrotation
    JOINT KneeLeft
    {
      OFFSET -3.739256 -26.403915 3.322565
      CHANNELS 3 Zrotation Xrotation Yrotation
      JOINT AnkleLeft
      {
        OFFSET -19.182076 -21.050744 2.162548
        CHANNELS 3 Zrotation Xrotation Yrotation
        JOINT FootLeft
        {
          OFFSET 9.226983 9.086435 -4.519082
          CHANNELS 3 Zrotation Xrotation Yrotation
          End Site
          {
            OFFSET 0 0 0
          }
        }
      }
    }
  }
  JOINT HipRight
  {
    OFFSET 6.664548 0.235256 -5.578879
    CHANNELS 3 Zrotation Xrotation Yrotation
    JOINT KneeRight
    {
      OFFSET 6.790862 -29.741609 0.655490
      CHANNELS 3 Zrotation Xrotation Yrotation
      JOINT AnkleRight
      {
        OFFSET 5.553193 -37.995728 1.275869
        CHANNELS 3 Zrotation Xrotation Yrotation
        JOINT FootRight
        {
          OFFSET -1.104838 -7.410375 -6.368279
          CHANNELS 3 Zrotation Xrotation Yrotation
          End Site
          {
            OFFSET 0 0 0
          }
        }
      }
    }
  }
}
MOTION
Frames: 8
Frame Time: 0.033333
-60.016684 76.967226 446.148672 -0.000000 0.000000 22.518706 0.000000 0.000000 -22.518706 -0.000000 0.000000 0.000000 -0.000000 0.000000 0.000000 0.000000 0.000000 0.000000 -0.000000 0.000000 0.000000 -0.000000 0.000000 0.000000 -0.000000 0.000000 0.000000 -0.000000 0.000000 0.000000 0.000000 0.000000 0.000000 0.000000 0.000000 0.000000 -0.000000 0.000000 0.000000 -0.000000 0.000000 0.000000 -0.000000 0.000000 0.000000 -0.000000 0.000000 0.000000 0.000000 0.000000 0.000000 0.000000 0.000000 0.000000 0.000000 0.000000 -22.518706 -0.000000 0.000000 0.000000 -0.000000 0.000000 0.000000 0.000000 0.000000 0.000000 0.000000 0.000000 -22.518706 -0.000000 0.000000 0.000000 -0.000000 0.000000 0.000000 0.000000 0.000000 0.000000
-60.146303 77.000785 446.132446 -0.210442 0.048890 22.581710 0.175535 -0.125951 -22.581427 -0.000000 0.000000 0.000000 -0.000000 0.000000 0.000000 0.000000 0.000000 0.000000 -0.000000 0.000000 0.000000 -0.628658 -0.536748 0.115212 1.602678 -3.260622 -1.145794 5.890616 7.499260 0.311876 0.000000 0.000000 0.000000 0.000000 0.000000 0.000000 -0.000000 0.000000 0.000000 -0.000000 0.000000 0.000000 1.296196 0.271960 -0.378038 -0.724985 -2.244218 0.220167 0.000000 0.000000 0.000000 0.000000 0.000000 0.000000 0.175535 -0.125951 -22.581427 6.921348 0.817380 -0.087238 0.623890 0.986470 2.051305 0.000000 0.000000 0.000000 0.175535 -0.125951 -22.581427 -0.000000 0.000000 0.000000 -0.053409 2.050767 -0.254995 0.000000 0.000000 0.000000
-60.252460 77.028364 446.112366 -0.388208 0.098292 22.622822 0.320531 -0.240056 -22.621817 -0.000000 0.000000 0.000000 -0.000000 0.000000 0.000000 0.000000 0.000000 0.000000 -0.000000 0.000000 0.000000 -1.132739 -0.968786 0.203466 3.101861 -5.895360 -2.084056 10.368529 13.872328 -0.293934 0.000000 0.000000 0.000000 0.000000 0.000000 0.000000 -0.933190 0.625224 0.204496 0.426027 0.242790 -0.183438 2.854896 -0.534453 -0.590164 -1.416823 -3.964138 0.386626 0.000000 0.000000 0.000000 0.000000 0.000000 0.000000 0.571875 -1.015496 -22.464662 11.621989 2.020635 -0.521978 1.584978 2.012430 3.695435 0.000000 0.000000 0.000000 0.320531 -0.240056 -22.621817 -0.000000 0.000000 0.000000 -0.039446 3.677366 -0.499486 0.000000 0.000000 0.000000
-60.335156 77.049961 446.088433 -0.533151 0.148186 22.642110 0.435019 -0.342007 -22.640122 -0.000000 0.000000 0.000000 -0.000000 0.000000 0.000000 0.000000 0.000000 0.000000 0.878047 0.487427 -0.079638 -2.408003 -1.802305 0.329828 4.534911 -7.844765 -2.816512 13.346560 18.945839 -1.181320 0.000000 0.000000 0.000000 0.000000 0.000000 0.000000 -1.290409 0.883412 0.291738 0.650993 0.409580 -0.275756 3.839445 -1.090169 -0.644221 -2.135286 -5.162842 0.501609 0.000000 0.000000 0.000000 0.000000 0.000000 0.000000 1.001273 -1.487121 -22.390976 14.601606 2.625431 -0.861271 2.657304 2.861385 4.898077 0.000000 0.000000 0.000000 0.435019 -0.342007 -22.640122 -0.000000 0.000000 0.000000 0.038162 4.856587 -0.732272 0.000000 0.000000 0.000000
-60.394391 77.065576 446.060648 -0.645153 0.198551 22.639608 0.519026 -0.431579 -22.636535 -0.000000 0.000000 0.000000 0.694407 0.537268 0.232134 0.000000 0.000000 0.000000 1.108468 0.607585 -0.101081 -2.945827 -2.189692 0.390823 5.926803 -9.093672 -3.354745 14.692184 22.751029 -1.823284 0.000000 0.000000 0.000000 0.000000 0.000000 0.000000 -1.572443 1.104480 0.367397 0.885622 0.607964 -0.369253 4.572431 -1.833626 -0.546739 -2.918090 -5.833546 0.563390 0.000000 0.000000 0.000000 0.000000 0.000000 0.000000 1.526943 -1.933648 -22.284247 15.643641 2.984729 -1.152830 3.718033 3.384700 5.688362 0.000000 0.000000 0.000000 0.519026 -0.431579 -22.636535 -0.000000 0.000000 0.000000 0.173973 5.581274 -0.951128 0.000000 0.000000 0.000000
-60.430165 77.075211 446.029010 -0.724125 0.249367 22.615313 0.572575 -0.508630 -22.611195 -0.000000 0.000000 0.000000 0.817968 0.504747 0.236911 0.000000 0.000000 0.000000 1.307785 0.706684 -0.119576 -3.371586 -2.486610 0.435133 7.289949 -9.655852 -3.717452 14.228875 25.384025 -1.829309 0.000000 0.000000 0.000000 0.000000 0.000000 0.000000 -1.777988 1.287952 0.430506 1.131938 0.838745 -0.464844 5.072872 -2.781678 -0.293607 -3.785615 -5.956751 0.568530 0.000000 0.000000 0.000000 0.000000 0.000000 0.000000 2.149287 -2.353903 -22.143283 14.751036 3.122938 -1.362101 4.730785 3.500841 6.100518 0.000000 0.000000 0.000000 0.572575 -0.508630 -22.611195 -0.000000 0.000000 0.000000 0.361301 5.858065 -1.152946 0.000000 0.000000 0.000000
-60.422556 77.081167 445.995207 -0.741523 0.324631 22.574122 0.560121 -0.584389 -22.569165 -0.000000 0.000000 0.000000 0.976682 0.304478 0.199119 0.000000 0.000000 0.000000 1.404897 0.651066 -0.118983 -3.445308 -2.462334 0.432142 9.740691 -8.173841 -3.802553 3.410553 25.212093 2.294585 0.000000 0.000000 0.000000 0.000000 0.000000 0.000000 -1.784671 1.433547 0.477596 1.290445 1.311998 -0.584131 6.141848 -4.916993 0.440356 -5.914346 -3.500170 0.473267 0.000000 0.000000 0.000000 0.000000 0.000000 0.000000 3.131592 -2.744578 -21.946787 9.335341 2.858606 -1.519361 7.534663 3.117935 6.280228 0.000000 0.000000 0.000000 0.560121 -0.584389 -22.569165 -0.000000 0.000000 0.000000 0.422100 6.566593 -1.303464 0.000000 0.000000 0.000000
-60.392813 77.075613 445.948862 -0.716471 0.392636 22.441603 0.512361 -0.636383 -22.436303 -0.000000 0.000000 0.000000 1.098321 0.143361 0.168452 0.000000 0.000000 0.000000 1.508752 0.672375 -0.125885 -3.634759 -2.554736 0.449082 12.327875 -6.059902 -3.903750 0.183763 25.298656 3.209752 0.000000 0.000000 0.000000 0.000000 0.000000 0.000000 -1.780675 1.566029 0.520224 1.597649 1.765813 -0.725364 5.922766 -7.293389 1.517342 -7.274540 -1.462353 0.278885 0.000000 0.000000 0.000000 0.000000 0.000000 0.000000 4.247798 -3.124080 -21.632315 1.643038 2.376075 -1.630012 9.856403 2.189418 5.743132 0.000000 0.000000 0.000000 0.512361 -0.636383 -22.436303 -0.000000 0.000000 0.000000 1.370951 4.172838 -1.797363 0.000000 0.000000 0.000000
